<svg viewBox="0 0 400 400" xmlns="http://www.w3.org/2000/svg" data-cc-id="cc-6"><defs><linearGradient id="export-sun" x1="0" y1="0" x2="0" y2="1"><stop offset="0%" stop-color="#FFCB6B"/><stop offset="50%" stop-color="#FF5370"/><stop offset="100%" stop-color="#C792EA"/></linearGradient><linearGradient id="export-viper" x1="0" y1="0" x2="1" y2="0"><stop offset="0%" stop-color="#FF5370"/><stop offset="50%" stop-color="#C792EA"/><stop offset="100%" stop-color="#89DDFF"/></linearGradient><linearGradient id="export-mug" x1="0" y1="0" x2="0" y2="1"><stop offset="0%" stop-color="#89DDFF"/><stop offset="100%" stop-color="#C792EA"/></linearGradient><linearGradient id="export-shirt" x1="0" y1="0" x2="0" y2="1"><stop offset="0%" stop-color="#FF5370"/><stop offset="100%" stop-color="#8a2540"/></linearGradient><radialGradient id="export-glow" cx="0.5" cy="0.5" r="0.5"><stop offset="0%" stop-color="#FF5370" stop-opacity="0.55"/><stop offset="60%" stop-color="#C792EA" stop-opacity="0.15"/><stop offset="100%" stop-color="#1B1E2B" stop-opacity="0"/></radialGradient><linearGradient id="export-grid" x1="0" y1="0" x2="0" y2="1"><stop offset="0%" stop-color="#FF5370" stop-opacity="0.0"/><stop offset="40%" stop-color="#FF5370" stop-opacity="0.5"/><stop offset="100%" stop-color="#89DDFF" stop-opacity="1"/></linearGradient><filter id="export-neon" x="-30%" y="-30%" width="160%" height="160%"><feGaussianBlur stdDeviation="1.4" result="b1"/><feMerge><feMergeNode in="b1"/><feMergeNode in="SourceGraphic"/></feMerge></filter><filter id="export-bigglow" x="-50%" y="-50%" width="200%" height="200%"><feGaussianBlur stdDeviation="3.5" result="b1"/><feMerge><feMergeNode in="b1"/><feMergeNode in="SourceGraphic"/></feMerge></filter><clipPath id="export-clip"><circle cx="200" cy="200" r="190"/></clipPath></defs><circle cx="200" cy="200" r="194" fill="#1B1E2B"/><g clip-path="url(#export-clip)"><g><rect x="0" y="0" width="400" height="240" fill="#1B1E2B"/><rect x="0" y="240" width="400" height="160" fill="#11131C"/><rect x="0" y="0" width="400" height="400" fill="url(#export-glow)"/><g filter="url(#export-bigglow)"><circle cx="200" cy="200" r="110" fill="url(#export-sun)"/><rect x="90" y="238" width="220" height="3" fill="#1B1E2B"/><rect x="90" y="250" width="220" height="4" fill="#1B1E2B"/><rect x="90" y="264" width="220" height="6" fill="#1B1E2B"/><rect x="90" y="282" width="220" height="9" fill="#1B1E2B"/></g><line x1="0" y1="240" x2="400" y2="240" stroke="#89DDFF" stroke-width="1.5" filter="url(#export-neon)"/><g><line x1="0" y1="243.06537397316615" x2="400" y2="243.06537397316615" stroke="url(#export-grid)" stroke-width="1.1"/><line x1="0" y1="250.67425215621225" x2="400" y2="250.67425215621225" stroke="url(#export-grid)" stroke-width="1.1"/><line x1="0" y1="262.146327815387" x2="400" y2="262.146327815387" stroke="url(#export-grid)" stroke-width="1.1"/><line x1="0" y1="277.1699049094218" x2="400" y2="277.1699049094218" stroke="url(#export-grid)" stroke-width="1.1"/><line x1="0" y1="295.543017932943" x2="400" y2="295.543017932943" stroke="url(#export-grid)" stroke-width="1.1"/><line x1="0" y1="317.117992618503" x2="400" y2="317.117992618503" stroke="url(#export-grid)" stroke-width="1.1"/><line x1="0" y1="341.7794120356874" x2="400" y2="341.7794120356874" stroke="url(#export-grid)" stroke-width="1.1"/><line x1="0" y1="369.43312662624203" x2="400" y2="369.43312662624203" stroke="url(#export-grid)" stroke-width="1.1"/><line x1="0" y1="400" x2="400" y2="400" stroke="url(#export-grid)" stroke-width="1.1"/><line x1="0" y1="400" x2="200" y2="240" stroke="url(#export-grid)" stroke-width="1.1"/><line x1="36.36363636363637" y1="400" x2="200" y2="240" stroke="url(#export-grid)" stroke-width="1.1"/><line x1="72.72727272727273" y1="400" x2="200" y2="240" stroke="url(#export-grid)" stroke-width="1.1"/><line x1="109.09090909090908" y1="400" x2="200" y2="240" stroke="url(#export-grid)" stroke-width="1.1"/><line x1="145.45454545454547" y1="400" x2="200" y2="240" stroke="url(#export-grid)" stroke-width="1.1"/><line x1="181.8181818181818" y1="400" x2="200" y2="240" stroke="url(#export-grid)" stroke-width="1.1"/><line x1="218.18181818181816" y1="400" x2="200" y2="240" stroke="url(#export-grid)" stroke-width="1.1"/><line x1="254.54545454545453" y1="400" x2="200" y2="240" stroke="url(#export-grid)" stroke-width="1.1"/><line x1="290.90909090909093" y1="400" x2="200" y2="240" stroke="url(#export-grid)" stroke-width="1.1"/><line x1="327.2727272727273" y1="400" x2="200" y2="240" stroke="url(#export-grid)" stroke-width="1.1"/><line x1="363.6363636363636" y1="400" x2="200" y2="240" stroke="url(#export-grid)" stroke-width="1.1"/><line x1="400" y1="400" x2="200" y2="240" stroke="url(#export-grid)" stroke-width="1.1"/></g><circle cx="84.52846364883402" cy="111.43458504801097" r="0.6000000000000001" fill="#A6ACCD" opacity="0.5"/><circle cx="100.47668038408779" cy="172.835219478738" r="0.7" fill="#A6ACCD" opacity="0.5"/><circle cx="116.42489711934157" cy="14.235853909465021" r="0.8" fill="#A6ACCD" opacity="0.5"/><circle cx="132.37311385459535" cy="75.63648834019205" r="0.9" fill="#A6ACCD" opacity="0.5"/><circle cx="148.3213305898491" cy="137.03712277091907" r="1" fill="#A6ACCD" opacity="0.5"/><circle cx="164.26954732510288" cy="198.4377572016461" r="0.4" fill="#A6ACCD" opacity="0.5"/><circle cx="180.21776406035664" cy="39.83839163237311" r="0.5" fill="#A6ACCD" opacity="0.5"/><circle cx="196.16598079561044" cy="101.23902606310014" r="0.6000000000000001" fill="#A6ACCD" opacity="0.5"/><circle cx="212.1141975308642" cy="162.63966049382714" r="0.7" fill="#A6ACCD" opacity="0.5"/><circle cx="228.06241426611797" cy="224.0402949245542" r="0.8" fill="#A6ACCD" opacity="0.5"/><circle cx="244.01063100137173" cy="65.4409293552812" r="0.9" fill="#A6ACCD" opacity="0.5"/><circle cx="259.9588477366255" cy="126.84156378600822" r="1" fill="#A6ACCD" opacity="0.5"/><circle cx="275.90706447187927" cy="188.24219821673526" r="0.4" fill="#A6ACCD" opacity="0.5"/><circle cx="291.8552812071331" cy="29.642832647462278" r="0.5" fill="#A6ACCD" opacity="0.5"/><circle cx="307.80349794238685" cy="91.04346707818931" r="0.6000000000000001" fill="#A6ACCD" opacity="0.5"/><circle cx="323.7517146776406" cy="152.44410150891633" r="0.7" fill="#A6ACCD" opacity="0.5"/><circle cx="339.6999314128944" cy="213.84473593964336" r="0.8" fill="#A6ACCD" opacity="0.5"/><circle cx="355.64814814814815" cy="55.245370370370374" r="0.9" fill="#A6ACCD" opacity="0.5"/><circle cx="371.5963648834019" cy="116.64600480109739" r="1" fill="#A6ACCD" opacity="0.5"/><circle cx="387.5445816186557" cy="178.0466392318244" r="0.4" fill="#A6ACCD" opacity="0.5"/><circle cx="3.4927983539094654" cy="19.44727366255144" r="0.4" fill="#A6ACCD" opacity="0.5"/><circle cx="19.441015089163237" cy="80.84790809327846" r="0.5" fill="#A6ACCD" opacity="0.5"/></g><g><ellipse cx="200" cy="200" rx="115" ry="135" fill="#C792EA" opacity="0.18" filter="url(#export-bigglow)"/><path d="M 90 400 L 90 320 Q 110 290 150 280 L 168 274 L 232 274 L 250 280 Q 290 290 310 320 L 310 400 Z" fill="url(#export-shirt)" stroke="#FF5370" stroke-width="1.5"/><path d="M 168 274 L 200 296 L 232 274 Z" fill="#1B1E2B"/><path d="M 110 360 L 150 320" stroke="#1B1E2B" stroke-width="1.2" opacity="0.5"/><path d="M 290 360 L 250 320" stroke="#1B1E2B" stroke-width="1.2" opacity="0.5"/><path d="M 184 268 L 184 286 L 216 286 L 216 268 Z" fill="#292D3E" stroke="#FF5370" stroke-width="1"/><path d="M 184 282 L 184 286 L 216 286 L 216 282 Z" fill="#1B1E2B" opacity="0.7"/><path d=" M 152 168 Q 152 138 200 138 Q 248 138 248 168 L 248 200 Q 248 232 232 252 Q 216 270 200 272 Q 184 270 168 252 Q 152 232 152 200 Z " fill="#292D3E" stroke="#FF5370" stroke-width="2"/><path d=" M 158 158 Q 152 138 168 122 Q 184 118 200 118 Q 216 118 232 122 Q 248 138 242 158 L 242 154 Q 238 142 224 138 Q 200 136 176 138 Q 162 142 158 154 Z " fill="#FFCB6B" fill-opacity="0.9" stroke="#FF5370" stroke-width="1.1"/><path d="M 156 154 Q 168 148 180 148 L 180 158 Q 168 156 156 158 Z" fill="#11131C" opacity="0.45"/><path d="M 244 154 Q 232 148 220 148 L 220 158 Q 232 156 244 158 Z" fill="#11131C" opacity="0.45"/><path d="M 164 130 Q 200 118 236 130" fill="none" stroke="#89DDFF" stroke-width="1" opacity="0.85" filter="url(#export-neon)"/><circle cx="170" cy="140" r="0.6" fill="#FF5370" opacity="0.55"/><circle cx="184" cy="141" r="0.6" fill="#FF5370" opacity="0.55"/><circle cx="200" cy="140" r="0.6" fill="#FF5370" opacity="0.55"/><circle cx="216" cy="141" r="0.6" fill="#FF5370" opacity="0.55"/><circle cx="230" cy="140" r="0.6" fill="#FF5370" opacity="0.55"/><path d="M 190 252 Q 200 248 210 252 Q 213 262 200 266 Q 187 262 190 252 Z" fill="#FFCB6B" opacity="0.78"/><rect x="196" y="238" width="8" height="3" rx="1.5" fill="#FFCB6B" opacity="0.7"/><path d="M 178 240 Q 184 252 190 258" stroke="#FFCB6B" stroke-width="2.2" fill="none" opacity="0.6" stroke-linecap="round"/><path d="M 222 240 Q 216 252 210 258" stroke="#FFCB6B" stroke-width="2.2" fill="none" opacity="0.6" stroke-linecap="round"/><line x1="190" y1="232" x2="210" y2="232" stroke="#A6ACCD" stroke-width="1.2" opacity="0.6" stroke-linecap="round"/><path d="M 168 162 Q 178 158 188 162" stroke="#FF5370" stroke-width="2" stroke-linecap="round" fill="none" opacity="0.85"/><path d="M 212 162 Q 222 158 232 162" stroke="#FF5370" stroke-width="2" stroke-linecap="round" fill="none" opacity="0.85"/><g filter="url(#export-neon)"><path d=" M 128 169 L 272 168 L 272 179 L 268 179 L 268 213 Q 252 228 229 225 Q 218 222 210 204 Q 200 182 190 204 Q 182 222 167 225 Q 148 228 133 215 L 133 179 L 128 179 Z " fill="url(#export-viper)" stroke="#FF5370" stroke-width="1.4"/><path d="M 128 169 L 138 169 L 138 180 L 128 180 Z" fill="#292D3E" stroke="#FF5370" stroke-width="0.9"/><path d="M 262 168 L 272 168 L 272 179 L 262 179 Z" fill="#292D3E" stroke="#FF5370" stroke-width="0.9"/><path d="M 188 168 L 212 168 L 210 176 L 190 176 Z" fill="#292D3E" stroke="#FF5370" stroke-width="0.9"/><circle cx="131" cy="173" r="0.7" fill="#FF5370" opacity="0.9"/><circle cx="134" cy="176" r="0.7" fill="#89DDFF" opacity="0.9"/><circle cx="136" cy="172" r="0.7" fill="#C792EA" opacity="0.9"/><circle cx="265" cy="172" r="0.7" fill="#89DDFF" opacity="0.9"/><circle cx="268" cy="176" r="0.7" fill="#FF5370" opacity="0.9"/><circle cx="270" cy="173" r="0.7" fill="#C792EA" opacity="0.9"/><circle cx="192" cy="171" r="0.7" fill="#89DDFF" opacity="0.9"/><circle cx="196" cy="173" r="0.7" fill="#FF5370" opacity="0.9"/><circle cx="200" cy="171" r="0.7" fill="#C792EA" opacity="0.9"/><circle cx="204" cy="173" r="0.7" fill="#89DDFF" opacity="0.9"/><circle cx="208" cy="171" r="0.7" fill="#FF5370" opacity="0.9"/><path d="M 144 206 L 180 190" stroke="#EEFFFF" stroke-width="1.7" opacity="0.75" stroke-linecap="round"/><path d="M 152 216 L 174 208" stroke="#EEFFFF" stroke-width="1" opacity="0.5" stroke-linecap="round"/><path d="M 220 190 L 256 206" stroke="#EEFFFF" stroke-width="1.7" opacity="0.75" stroke-linecap="round"/><path d="M 226 208 L 248 216" stroke="#EEFFFF" stroke-width="1" opacity="0.5" stroke-linecap="round"/><circle cx="166" cy="202" r="5" fill="#FFCB6B" opacity="0.28"/><line x1="158" y1="206" x2="174" y2="206" stroke="#FFCB6B" stroke-width="0.6" opacity="0.7"/><circle cx="234" cy="202" r="5" fill="#FFCB6B" opacity="0.28"/><line x1="226" y1="206" x2="242" y2="206" stroke="#FFCB6B" stroke-width="0.6" opacity="0.7"/></g><g><g filter="url(#export-neon)" opacity="0.85"><path d="M 260 252 Q 254 244 262 236 Q 270 228 264 220 Q 258 212 266 204" fill="none" stroke="#89DDFF" stroke-width="1.6" stroke-linecap="round"/><path d="M 278 254 Q 272 246 280 238 Q 288 230 282 222 Q 276 214 284 206" fill="none" stroke="#C792EA" stroke-width="1.6" stroke-linecap="round"/><path d="M 296 252 Q 290 244 298 236 Q 306 228 300 220" fill="none" stroke="#FF5370" stroke-width="1.6" stroke-linecap="round"/></g><g><path d="M 242 282 Q 248 278 256 278 L 262 278 L 262 320 L 244 320 Q 238 314 240 302 Z" fill="url(#export-shirt)" stroke="#FF5370" stroke-width="1.2"/><line x1="248" y1="288" x2="262" y2="288" stroke="#11131C" stroke-width="1" opacity="0.7"/><line x1="246" y1="298" x2="262" y2="298" stroke="#11131C" stroke-width="1" opacity="0.7"/><line x1="244" y1="308" x2="262" y2="308" stroke="#11131C" stroke-width="1" opacity="0.7"/><path d="M 256 274 Q 268 270 278 276 L 278 286 L 256 286 Z" fill="url(#export-shirt)" stroke="#FF5370" stroke-width="1.2"/></g><g><path d="M 262 286 Q 254 288 254 298 Q 254 308 262 310" fill="none" stroke="#FF5370" stroke-width="6" stroke-linecap="round"/><path d="M 262 290 Q 258 292 258 298 Q 258 304 262 306" fill="none" stroke="#11131C" stroke-width="2"/><rect x="262" y="278" width="68" height="58" rx="6" fill="url(#export-mug)" stroke="#89DDFF" stroke-width="1.5" filter="url(#export-neon)"/><ellipse cx="296" cy="280" rx="34" ry="4" fill="#11131C" stroke="#89DDFF" stroke-width="1"/><ellipse cx="296" cy="280" rx="30" ry="2.5" fill="#11131C"/><ellipse cx="296" cy="281" rx="28" ry="2" fill="#FF5370" opacity="0.7"/><g transform="translate(296, 308)" fill="#89DDFF"><ellipse cx="-3" cy="10" rx="6" ry="4.5"/><rect x="2" y="-10" width="2" height="20"/><path d="M 4 -10 Q 12 -7 10 0 Q 8 -4 4 -3 Z"/></g></g></g></g></g><circle cx="200" cy="200" r="194" fill="none" stroke="#FF5370" stroke-width="3"/><circle cx="200" cy="200" r="186" fill="none" stroke="#89DDFF" stroke-width="1" opacity="0.7"/></svg>